# xmcd CD database file
#
# Track frame offsets:
#	150
#	104525
#	121008
#	144689
#	167979
#
# Disc length: 2771 seconds
#
# Revision: 0
# Processed by: cddbd v1.5.2PL0 Copyright (c) Steve Scherf et al.
# Submitted via: CDex 1.70beta2
#
DISCID=420ad105
DTITLE=Michel Legrand - Le Jazz Grand
DYEAR=1978
DGENRE=Jazz
TTITLE0=Southern Routes
TTITLE1=La Pasionaria
TTITLE2=Malagan Stew
TTITLE3=Iberia Nova
TTITLE4=Basquette
EXTD=YEAR: 1978
EXTT0=
EXTT1=
EXTT2=
EXTT3=
EXTT4=
PLAYORDER=
